<svg xmlns="http://www.w3.org/2000/svg" viewBox="0 0 864 360"><defs><style><![CDATA[
    line, polyline, path, rect, circle {
      fill: none;
      stroke: #000000;
      stroke-linecap: round;
      stroke-linejoin: round;
      stroke-miterlimit: 10.00;
    }
  ]]></style></defs><rect width="100%" height="100%" style="stroke: none; fill: #FFFFFF;"/><path d="M0 0h864v360H0z" style="stroke-width: 1.07; stroke: #FFFFFF; fill: #FFFFFF;"/><defs><clipPath id="cpNTMuNjgzNHw4NTguNTIxfDIzOS43ODl8MjEuNTcwNA=="><path d="M53.68 21.57h804.84v218.22H53.68z"/></clipPath></defs><path d="M53.68 21.57h804.84v218.22H53.68z" style="stroke-width: 1.07; stroke: none; fill: #EBEBEB;" clip-path="url(#cpNTMuNjgzNHw4NTguNTIxfDIzOS43ODl8MjEuNTcwNA==)"/><path d="M53.68 193.8h804.84M53.68 121.66h804.84M53.68 49.52h804.84M203.96 239.79V21.57m229.22 218.22V21.57M662.4 239.79V21.57" style="stroke-width: 0.53; stroke: #FFFFFF; stroke-linecap: butt;" clip-path="url(#cpNTMuNjgzNHw4NTguNTIxfDIzOS43ODl8MjEuNTcwNA==)"/><path d="M53.68 229.87h804.84M53.68 157.73h804.84M53.68 85.59h804.84M89.35 239.79V21.57m229.22 218.22V21.57m229.22 218.22V21.57m229.22 218.22V21.57" style="stroke-width: 1.07; stroke: #FFFFFF; stroke-linecap: butt;" clip-path="url(#cpNTMuNjgzNHw4NTguNTIxfDIzOS43ODl8MjEuNTcwNA==)"/><path d="M90.27 228.51l6.07-2.16 6.07-2.31 6.07-2.49 6.07-2.66 6.07-2.8 6.07-3.02 6.07-3.1 6.07-3.48 6.07-3.47 6.07-2.7 6.07-2.37 6.07-2.25 6.07-1.63 6.07-1.86 6.07-2.04 6.07-2.41 6.07-3.82 6.07-4.55 6.07-3.67 6.07-3.7 6.07-2.93 6.07-1.27 6.07-1.18 6.07-1.75 6.07-1.64 6.07-3.18 6.07-4.68 6.07-3.7 6.07-3.32 6.07-2.9 6.07-1.34 6.07-.68 6.07-1.98 6.07-2.39 6.07-2.9 6.07-4 6.07-3.47 6.07-2.65 6.07-2.44 6.07-2.09 6.07-1.63 6.07-1.94 6.07-2.05 6.07-2.14 6.07-2.23 6.07-2.36 6.07-2.61 6.07-2.77 6.07-2.67 6.07-2.77 6.07-2.69 6.07-2.34 6.07-2.33 6.07-2.47 6.07-2.43 6.07-3.07 6.07-3.72 6.07-3.58 6.07-3.51 6.07-3.4 6.07-3.1 6.07-2.94 6.07-2.58 6.07-2.25 6.07-2.27 6.07-2.22 6.07-2.13 6.07-2.2 6.07-2.22 6.07-2.14 6.07-1.99 6.07-1.87 6.07-1.67 6.07-1.48 6.07-1.31 6.07-1.16 6.07-.99 6.07-.83 6.07-.67" style="stroke-width: 2.13; stroke: #FB6A4A; stroke-linecap: butt;" clip-path="url(#cpNTMuNjgzNHw4NTguNTIxfDIzOS43ODl8MjEuNTcwNA==)"/><path d="M90.27 229.16l6.32-2.46 6.33-2.46 6.32-2.47 6.33-2.48 6.32-2.49 6.33-2.49 6.32-2.5 6.33-2.49 6.32-2.51 6.33-2.65 6.33-2.77 6.32-2.74 6.33-2.78 6.32-2.75 6.33-2.54 6.32-2.43 6.33-2.48 6.32-2.39 6.33-2.51 6.32-2.71 6.33-2.8 6.32-2.81 6.33-2.87 6.32-2.91 6.33-3 6.32-2.97 6.33-3.04 6.33-3.01 6.32-2.69 6.33-2.53 6.32-2.49 6.33-2.28 6.32-2.28 6.33-2.33 6.32-2.36 6.33-2.55 6.32-2.64 6.33-2.84 6.32-3.15 6.33-3.2 6.32-3.4 6.33-3.59 6.33-2.67 6.32-1.92 6.33-2.04 6.32-1.93 6.33-1.96 6.32-2.23 6.33-2.29 6.32-2.54 6.33-3 6.32-2.98 6.33-2.8 6.32-2.73 6.33-2.74 6.32-2.85 6.33-2.65 6.32-2.38 6.33-2.37 6.33-2.41 6.32-2.41 6.33-2.52 6.32-2.6 6.33-2.53 6.32-2.46 6.33-2.46 6.32-2.49 6.33-2.47 6.32-2.44 6.33-2.54 6.32-2.31 6.33-2.06 6.32-1.9 6.33-1.67 6.33-1.42 6.32-1.21 6.33-1 6.32-.79 6.33-.58" style="stroke-width: 2.13; stroke: #DE2D26; stroke-linecap: butt;" clip-path="url(#cpNTMuNjgzNHw4NTguNTIxfDIzOS43ODl8MjEuNTcwNA==)"/><path d="M90.27 228.77l4.65-2.56 4.65-2.53 4.66-2.48 4.65-2.45 4.66-2.44 4.65-2.34 4.66-2.36 4.65-2.48 4.65-2.53 4.66-2.7 4.65-2.91 4.66-2.88 4.65-3.02 4.65-2.94 4.66-2.52 4.65-2.32 4.66-2.5 4.65-2.52 4.65-2.56 4.66-2.44 4.65-2.53 4.66-3.15 4.65-3.83 4.65-3.45 4.66-2.98 4.65-2.87 4.66-2.79 4.65-2.71 4.65-2.4 4.66-1.83 4.65-1.91 4.66-2.16 4.65-2.3 4.65-2.59 4.66-2.72 4.65-2.63 4.66-2.75 4.65-2.74 4.65-2.44 4.66-2.3 4.65-2.46 4.66-2.49 4.65-2.63 4.65-3.25 4.66-3.36 4.65-2.64 4.66-2.27 4.65-2.17 4.65-1.8 4.66-1.9 4.65-2.12 4.66-2.15 4.65-2.43 4.65-2.68 4.66-2.94 4.65-3.4 4.66-3.7 4.65-3.47 4.66-3.74 4.65-3.41 4.65-2.63 4.66-2.26 4.65-2 4.66-1.41 4.65-1.49 4.65-1.78 4.66-1.82 4.65-2.01 4.66-2.2 4.65-2.08 4.65-2.03 4.66-1.96 4.65-1.8 4.66-1.72 4.65-1.65 4.65-1.57 4.66-1.48 4.65-1.39 4.66-1.32" style="stroke-width: 2.13; stroke: #FC9272; stroke-linecap: butt;" clip-path="url(#cpNTMuNjgzNHw4NTguNTIxfDIzOS43ODl8MjEuNTcwNA==)"/><path d="M91.18 229.6l9.03-3.96 9.03-3.62 9.03-3.24 9.03-2.89 9.03-2.66 9.03-2.23 9.03-2.03 9.03-1.33 9.03-.97 9.03-2.61 9.03-3.66 9.03-3.57 9.03-4.09 9.03-3.88 9.03-2.63 9.03-2.14 9.03-1.9 9.03-.83 9.02-1.15 9.03-1.94 9.03-2.25 9.03-2.39 9.03-2.37 9.03-2.97 9.03-4.05 9.03-4.35 9.03-4.77 9.03-5.31 9.03-2.9 9.03-1.4 9.03-1.24 9.03.16 9.03.27 9.03-.92 9.03-1.19 9.03-2.82 9.03-4.94 9.03-4.41 9.03-4.14 9.02-3.83 9.03-2.67 9.03-2.19 9.03-2.65 9.03-2.46 9.03-2.43 9.03-3.23 9.03-3.61 9.03-2.89 9.03-2.63 9.03-1.96 9.03-.61 9.03-.72 9.03-1.58 9.03-1.78 9.03-1.95 9.03-2.03 9.03-2.29 9.03-2.8 9.03-2.92 9.03-2.91 9.02-2.93 9.03-2.36 9.03-1.83 9.03-1.96 9.03-2.1 9.03-2.13 9.03-2.47 9.03-2.69 9.03-2.59 9.03-2.42 9.03-2.45 9.03-2.15 9.03-1.95 9.03-1.81 9.03-1.64 9.03-1.47 9.03-1.31 9.03-1.16 9.03-1.01" style="stroke-width: 2.13; stroke: #A50F15; stroke-linecap: butt;" clip-path="url(#cpNTMuNjgzNHw4NTguNTIxfDIzOS43ODl8MjEuNTcwNA==)"/><path d="M90.27 228.69l.44-4.72.44-4.3.44-3.89.44-3.45.44-3.09.44-2.72.44-1.5.45-.67.44-1.47.44-1.49.44-3.07.44-4.54.44-3.53.44-3.31.44-2.38.44-1.05.44-1.68.45-1.85.44-2.56.44-3.83.44-3.77.44-4.17.44-3.45.44-1.85.44-1.53.44-.71.44-.95.45-1.82.44-2.7.44-6.93.44-8.16.44-4.68.44-3.63.44-.16.44 2.37.44 2.01.45 3.31.44-.68.44-3.85.44-3.04.44-3.36.44-2.15.44-.25.44-2.19.44-4.14.44-4.48.45-6.67.44-4.97.44-1.64.44-1.26.44-.11.44-.22.44-2.69.44-3.05.44-2.37.44-2.15.45-.61.44-.03.44-1.01.44-1.46.44-4.23.44-5.95.44-6.03.44-7.51.44-3.32.44-.1.45-.39.44.92.44-.31.44-1.93.44-1.54.44-.64.44-1.44.44-2.74.44-2.71.45-2.56.44-2.71.44-2.82.44-2.92" style="stroke-width: 2.13; stroke: #FCBBA1; stroke-linecap: butt;" clip-path="url(#cpNTMuNjgzNHw4NTguNTIxfDIzOS43ODl8MjEuNTcwNA==)"/><path d="M91.18 211.45l.24-.81.23-2.12.23-2.99.23-3.42.23-3.39.24-2.93.23-2.01.23-.67.23-1.18.23-2.75.24-3.77.23-4.23.23-4.16.23-3.52.24-2.33.23-.68.23-.92.23-1.95.23-2.6.24-2.87.23-2.78.23-2.32.23-1.48.23-.38.24-.7.23-1.35.23-1.76.23-1.92.24-1.84.23-1.5.23-.92.23-.37.23-2.14.24-3.89.23-4.95.23-5.33.23-5.02.23-4.02.24-2.34.23-.46.23-.92.23-1.6.23-1.99.24-2.12.23-1.96.23-1.55.23-.84.24-.35.23-1.41.23-2.3.23-2.82.23-2.96.24-2.71.23-2.07.23-1.07.23-.54.23-2.07.24-3.25.23-3.9.23-4.03.23-3.63.24-2.73.23-1.29.23-.38.23-1.24.23-1.87.24-2.2.23-2.25.23-2 .23-1.46.23-.62.24-.41.23-1.23.23-1.79.23-2.08.24-2.09.23-1.83.23-1.3.23-.49" style="stroke-width: 2.13; stroke: #FEE5D9; stroke-linecap: butt;" clip-path="url(#cpNTMuNjgzNHw4NTguNTIxfDIzOS43ODl8MjEuNTcwNA==)"/><path d="M90.27 229.66l1.67-4.44 1.67-4.14 1.67-3.87 1.67-3.56 1.67-3.23 1.67-3 1.68-2.59 1.67-1.78 1.67-1.27 1.67-1.37 1.67-.92 1.67-1.25 1.67-2.08 1.67-2.45 1.68-2.6 1.67-2.85 1.67-2.72 1.67-2.76 1.67-2.77 1.67-2.82 1.67-2.84 1.67-2.79 1.68-2.76 1.67-2.85 1.67-3.01 1.67-2.94 1.67-2.67 1.67-2.49 1.67-2.44 1.68-2.29 1.67-2.4 1.67-2.85 1.67-3.11 1.67-2.64 1.67-2.46 1.67-2.38 1.67-1.89 1.68-2.15 1.67-2.69 1.67-2.84 1.67-2.82 1.67-3.13 1.67-2.94 1.67-2.74 1.67-2.53 1.68-2.03 1.67-1.48 1.67-1.54 1.67-1.26 1.67-1.29 1.67-1.95 1.67-2.41 1.67-2.28 1.68-2.27 1.67-2.79 1.67-3.37 1.67-3.41 1.67-3.58 1.67-4.05 1.67-3.89 1.67-3.34 1.68-3.09 1.67-2.36 1.67-1.22 1.67-1.61 1.67-1.86 1.67-2.07 1.67-2.58 1.67-2.77 1.68-2.58 1.67-2.7 1.67-2.35 1.67-1.98 1.67-1.77 1.67-1.45 1.67-1.08 1.68-.76 1.67-.45 1.67-.17" style="stroke-width: 2.13; stroke: #4169E1; stroke-dasharray: 11.38,11.38; stroke-linecap: butt;" clip-path="url(#cpNTMuNjgzNHw4NTguNTIxfDIzOS43ODl8MjEuNTcwNA==)"/><path d="M90.27 229.37l9.15-2.49 9.16-2.53 9.16-2.59 9.16-2.64 9.15-2.67 9.16-2.74 9.16-2.74 9.15-2.75 9.16-2.77 9.16-2.71 9.16-2.63 9.15-2.7 9.16-2.79 9.16-2.81 9.15-2.86 9.16-2.91 9.16-2.93 9.16-2.97 9.15-2.8 9.16-2.64 9.16-2.64 9.16-2.72 9.15-2.69 9.16-2.63 9.16-2.57 9.15-2.55 9.16-2.57 9.16-2.53 9.16-2.34 9.15-2.25 9.16-2.47 9.16-2.57 9.15-2.65 9.16-2.71 9.16-2.8 9.16-3.1 9.15-3.19 9.16-2.9 9.16-2.81 9.15-2.68 9.16-2.27 9.16-2.37 9.16-2.78 9.15-2.93 9.16-3.38 9.16-4.08 9.15-3.4 9.16-2.65 9.16-2.44 9.16-2.06 9.15-1.67 9.16-2.2 9.16-2.49 9.16-2.45 9.15-2.86 9.16-2.68 9.16-1.68 9.15-1.26 9.16-1.66 9.16-1.64 9.16-2.02 9.15-2.56 9.16-2.7 9.16-2.74 9.15-2.92 9.16-2.85 9.16-2.93 9.16-2.68 9.15-2.44 9.16-2.3 9.16-2.2 9.15-2.09 9.16-1.95 9.16-1.79 9.16-1.65 9.15-1.52 9.16-1.38 9.16-1.24" style="stroke-width: 2.13; stroke: #436EEE; stroke-dasharray: 11.38,11.38; stroke-linecap: butt;" clip-path="url(#cpNTMuNjgzNHw4NTguNTIxfDIzOS43ODl8MjEuNTcwNA==)"/><path d="M91.18 229.15l9.24-1.1 9.24-1.11 9.24-1.14 9.24-1.16 9.24-1.17 9.23-1.18 9.24-1.2 9.24-1.23 9.24-1.26 9.24-1.22 9.24-1.1 9.23-1.11 9.24-1.26 9.24-1.36 9.24-1.28 9.24-1.21 9.24-1.23 9.24-1.22 9.23-1.18 9.24-1.31 9.24-1.45 9.24-1.48 9.24-1.6 9.24-1.76 9.23-1.4 9.24-1.05 9.24-.96 9.24-.86 9.24-.67 9.24-.94 9.24-1.04 9.23-1.19 9.24-1.65 9.24-1.96 9.24-1.39 9.24-.81 9.24-.96 9.23-1.56 9.24-1.74 9.24-1.68 9.24-1.93 9.24-1.68 9.24-1.2 9.23-1.04 9.24-.8 9.24-.12 9.24-.33 9.24-1.13 9.24-1.45 9.24-1.39 9.23-1.5 9.24-1.45 9.24-1.31 9.24-1.29 9.24-1.37 9.24-1.53 9.23-1.36 9.24-.9 9.24-.76 9.24-1.08 9.24-1.16 9.24-1.25 9.24-1.43 9.23-1.49 9.24-1.44 9.24-1.53 9.24-1.5 9.24-1.35 9.24-1.28 9.23-1.35 9.24-1.42 9.24-1.32 9.24-1.19 9.24-1.14 9.24-1.11 9.23-1.07 9.24-1.02 9.24-.99 9.24-.95" style="stroke-width: 2.13; stroke: #27408B; stroke-dasharray: 11.38,11.38; stroke-linecap: butt;" clip-path="url(#cpNTMuNjgzNHw4NTguNTIxfDIzOS43ODl8MjEuNTcwNA==)"/><path d="M90.27 229.6l9.26-1.79 9.26-1.78 9.26-1.76 9.26-1.75 9.27-1.75 9.26-1.73 9.26-1.73 9.26-1.71 9.26-1.67 9.26-1.72 9.27-1.8 9.26-1.82 9.26-1.81 9.26-1.83 9.26-1.8 9.26-1.73 9.26-1.74 9.27-1.77 9.26-1.76 9.26-1.86 9.26-1.95 9.26-2.02 9.26-2.21 9.27-2.37 9.26-2.01 9.26-1.74 9.26-1.66 9.26-1.59 9.26-1.46 9.27-1.51 9.26-1.47 9.26-1.5 9.26-1.62 9.26-1.7 9.26-1.65 9.27-1.61 9.26-1.59 9.26-1.66 9.26-1.69 9.26-1.52 9.26-1.3 9.27-1.37 9.26-1.44 9.26-1.47 9.26-1.71 9.26-1.85 9.26-2.05 9.27-2.37 9.26-2.51 9.26-2.41 9.26-2.46 9.26-2.43 9.26-2.71 9.27-2.67 9.26-2.22 9.26-2.06 9.26-1.63 9.26-1.03 9.26-.77 9.27-.49 9.26.11 9.26-.58 9.26-1.16 9.26-1.46 9.26-2.04 9.27-2.66 9.26-2.28 9.26-2.14 9.26-1.99 9.26-1.45 9.26-1.1 9.27-1.42 9.26-1.62 9.26-1.61 9.26-1.52 9.26-1.49 9.26-1.49 9.27-1.49 9.26-1.46" style="stroke-width: 2.13; stroke: #74C476; stroke-linecap: butt;" clip-path="url(#cpNTMuNjgzNHw4NTguNTIxfDIzOS43ODl8MjEuNTcwNA==)"/><path d="M90.27 229.49l9.26-2.11 9.26-2.17 9.26-2.23 9.26-2.31 9.27-2.34 9.26-2.44 9.26-2.46 9.26-2.48 9.26-2.53 9.26-2.31 9.27-2.06 9.26-2.01 9.26-1.95 9.26-1.84 9.26-2.01 9.26-2.07 9.26-2.16 9.27-2.1 9.26-2.2 9.26-2.7 9.26-3.08 9.26-2.95 9.26-3.21 9.27-3.04 9.26-2.33 9.26-2.02 9.26-1.84 9.26-1.19 9.26-1.29 9.27-1.77 9.26-1.91 9.26-2.09 9.26-2.31 9.26-2.31 9.26-2.47 9.27-2.5 9.26-2.26 9.26-2.13 9.26-2.12 9.26-2.06 9.26-2.08 9.27-1.97 9.26-1.83 9.26-2.31 9.26-2.69 9.26-3 9.26-3.69 9.27-3.96 9.26-3.18 9.26-2.77 9.26-3.03 9.26-3.31 9.26-3.35 9.27-3.67 9.26-4.09 9.26-3.21 9.26-2.62 9.26-2.23L636.7 86l9.27-.22 9.26-.71 9.26-.39 9.26-1.27 9.26-3.36 9.26-3.96 9.27-2.85 9.26-2.74 9.26-2.03 9.26-.97 9.26-.7 9.26-1.1 9.27-1.04 9.26-1.4 9.26-1.58 9.26-1.68 9.26-1.85 9.26-2.12 9.27-2.36 9.26-2.54" style="stroke-width: 2.13; stroke: #EDF8E9; stroke-linecap: butt;" clip-path="url(#cpNTMuNjgzNHw4NTguNTIxfDIzOS43ODl8MjEuNTcwNA==)"/><path d="M91.18 229.09l9.24-.93 9.24-.94 9.24-.95 9.24-.95 9.24-.95 9.23-.94 9.24-.95 9.24-.99 9.24-1.04 9.24-1.02 9.24-.99 9.23-.98 9.24-.9 9.24-.75 9.24-1.05 9.24-1.37 9.24-1.48 9.24-1.59 9.23-1.82 9.24-1.6 9.24-1.64 9.24-1.43 9.24-.78 9.24-.31 9.23-.49 9.24-.4 9.24-.46 9.24-.74 9.24-.84 9.24-.88 9.24-1.06 9.23-1.03 9.24-.74 9.24-.61 9.24-.85 9.24-.98 9.24-1.04 9.23-1.23 9.24-1.36 9.24-1.09 9.24-.87 9.24-.85 9.24-.28 9.23-.07 9.24-1.71 9.24-2.96 9.24-3.2 9.24-4.27 9.24-4.8 9.24-2.59 9.23-1.7 9.24-.74 9.24 1.83 9.24 3.02 9.24 1.12 9.24.82 9.23-.04 9.24-1.8 9.24-2.47 9.24-2.05 9.24-2.62 9.24-1.99 9.24-.69 9.23-.3 9.24-.49 9.24-.18 9.24-.62 9.24-1.52 9.24-1.67 9.23-1.23 9.24-1.19 9.24-1.1 9.24-.93 9.24-.88 9.24-.94 9.23-.91 9.24-.94 9.24-.98 9.24-1.01" style="stroke-width: 2.13; stroke: #31A354; stroke-linecap: butt;" clip-path="url(#cpNTMuNjgzNHw4NTguNTIxfDIzOS43ODl8MjEuNTcwNA==)"/><path d="M91.18 229.69l9.24-.88 9.24-.87 9.24-.86 9.24-.85 9.24-.84 9.23-.83 9.24-.83 9.24-.81 9.24-.79 9.24-.79 9.24-.76 9.23-.78 9.24-.87 9.24-.92 9.24-.89 9.24-.9 9.24-.88 9.24-.81 9.23-.76 9.24-.78 9.24-.75 9.24-.77 9.24-.85 9.24-.9 9.23-.86 9.24-.82 9.24-.85 9.24-.91 9.24-.93 9.24-.89 9.24-.87 9.23-.9 9.24-1.02 9.24-1.07 9.24-.9 9.24-.75 9.24-.74 9.23-.8 9.24-.8 9.24-.88 9.24-.89 9.24-.88 9.24-.9 9.23-.95 9.24-.94 9.24-.89 9.24-.96 9.24-1.2 9.24-1.28 9.24-1.12 9.23-1.15 9.24-1.06 9.24-.83 9.24-.67 9.24-.61 9.24-.52 9.23-.59 9.24-.59 9.24-.55 9.24-.74 9.24-.94 9.24-.91 9.24-.93 9.23-.92 9.24-.69 9.24-.48 9.24-.66 9.24-.94 9.24-1 9.23-1.01 9.24-1.08 9.24-1.06 9.24-1.03 9.24-1.06 9.24-1.11 9.23-1.14 9.24-1.17 9.24-1.22 9.24-1.26" style="stroke-width: 2.13; stroke: #006D2C; stroke-linecap: butt;" clip-path="url(#cpNTMuNjgzNHw4NTguNTIxfDIzOS43ODl8MjEuNTcwNA==)"/><path d="M90.27 228.7l9.26-1.69 9.26-1.78 9.26-1.89 9.26-2 9.27-2.07 9.26-2.19 9.26-2.28 9.26-2.39 9.26-2.62 9.26-2.39 9.27-2.15 9.26-2.04 9.26-1.83 9.26-1.54 9.26-1.71 9.26-1.77 9.26-1.89 9.27-2.15 9.26-2.3 9.26-2.66 9.26-3.4 9.26-3.38 9.26-2.98 9.27-3.03 9.26-2.36 9.26-1.54 9.26-1.39 9.26-1.21 9.26-.85 9.27-1.48 9.26-2 9.26-2.14 9.26-2.33 9.26-2.53 9.26-2.32 9.27-2.29 9.26-2.22 9.26-2.12 9.26-2.05 9.26-1.96 9.26-1.78 9.27-1.8 9.26-1.82 9.26-1.8 9.26-1.87 9.26-1.82 9.26-2.02 9.27-2.49 9.26-2.63 9.26-2.4 9.26-2.43 9.26-2.33 9.26-2.17 9.27-2.08 9.26-1.89 9.26-1.58 9.26-1.96 9.26-2.53 9.26-2.64 9.27-2.52 9.26-2.69 9.26-2.37 9.26-2.19 9.26-1.94 9.26-1.26 9.27-.63 9.26-1.15 9.26-1.4 9.26-1.63 9.26-2.35 9.26-2.87 9.27-2.58 9.26-2.56 9.26-2.38 9.26-2.02 9.26-1.87 9.26-1.62 9.27-1.34 9.26-1.1" style="stroke-width: 2.13; stroke: #BAE4B3; stroke-linecap: butt;" clip-path="url(#cpNTMuNjgzNHw4NTguNTIxfDIzOS43ODl8MjEuNTcwNA==)"/><defs><clipPath id="cpMHw4NjR8MzYwfDA="><path d="M0 0h864v360H0z"/></clipPath></defs><g clip-path="url(#cpMHw4NjR8MzYwfDA=)"><text x="43.75" y="233.09" style="font-size: 8.80px; fill: #4D4D4D; font-family: Arial;" textLength="5.01" lengthAdjust="spacingAndGlyphs">0</text></g><g clip-path="url(#cpMHw4NjR8MzYwfDA=)"><text x="21.22" y="160.95" style="font-size: 8.80px; fill: #4D4D4D; font-family: Arial;" textLength="27.53" lengthAdjust="spacingAndGlyphs">20,000</text></g><g clip-path="url(#cpMHw4NjR8MzYwfDA=)"><text x="21.22" y="88.81" style="font-size: 8.80px; fill: #4D4D4D; font-family: Arial;" textLength="27.53" lengthAdjust="spacingAndGlyphs">40,000</text></g><path d="M50.94 229.87h2.74m-2.74-72.14h2.74m-2.74-72.14h2.74m35.67 156.94v-2.74m229.22 2.74v-2.74m229.22 2.74v-2.74m229.22 2.74v-2.74" style="stroke-width: 1.07; stroke: #333333; stroke-linecap: butt;" clip-path="url(#cpMHw4NjR8MzYwfDA=)"/><g clip-path="url(#cpMHw4NjR8MzYwfDA=)"><text x="86.85" y="251.16" style="font-size: 8.80px; fill: #4D4D4D; font-family: Arial;" textLength="5.01" lengthAdjust="spacingAndGlyphs">0</text></g><g clip-path="url(#cpMHw4NjR8MzYwfDA=)"><text x="307.31" y="251.16" style="font-size: 8.80px; fill: #4D4D4D; font-family: Arial;" textLength="22.52" lengthAdjust="spacingAndGlyphs">5,000</text></g><g clip-path="url(#cpMHw4NjR8MzYwfDA=)"><text x="534.03" y="251.16" style="font-size: 8.80px; fill: #4D4D4D; font-family: Arial;" textLength="27.53" lengthAdjust="spacingAndGlyphs">10,000</text></g><g clip-path="url(#cpMHw4NjR8MzYwfDA=)"><text x="763.25" y="251.16" style="font-size: 8.80px; fill: #4D4D4D; font-family: Arial;" textLength="27.53" lengthAdjust="spacingAndGlyphs">15,000</text></g><g clip-path="url(#cpMHw4NjR8MzYwfDA=)"><text x="417.89" y="264.51" style="font-size: 11.00px; font-family: Arial;" textLength="76.43" lengthAdjust="spacingAndGlyphs">Received Bytes</text></g><g clip-path="url(#cpMHw4NjR8MzYwfDA=)"><text transform="rotate(-90 87.91 74.56)" style="font-size: 11.00px; font-family: Arial;" textLength="63.59" lengthAdjust="spacingAndGlyphs">Lookup Time</text></g><path d="M94.97 278.38h722.26v76.14H94.97z" style="stroke-width: 1.07; stroke: none; fill: #FFFFFF;" clip-path="url(#cpMHw4NjR8MzYwfDA=)"/><path d="M104.96 284.05h21.6v21.6h-21.6z" style="stroke-width: 10.67; stroke: #FFFFFF; fill: #F2F2F2;" clip-path="url(#cpMHw4NjR8MzYwfDA=)"/><path d="M107.12 294.85h17.28" style="stroke-width: 2.13; stroke: #FEE5D9; stroke-linecap: butt;" clip-path="url(#cpMHw4NjR8MzYwfDA=)"/><path d="M107.12 294.85h17.28" style="stroke-width: 2.13; stroke: #FEE5D9; stroke-dasharray: 11.38,11.38; stroke-linecap: butt;" clip-path="url(#cpMHw4NjR8MzYwfDA=)"/><path d="M107.12 294.85h17.28" style="stroke-width: 2.13; stroke: #FEE5D9; stroke-linecap: butt;" clip-path="url(#cpMHw4NjR8MzYwfDA=)"/><path d="M104.96 305.65h21.6v21.6h-21.6z" style="stroke-width: 10.67; stroke: #FFFFFF; fill: #F2F2F2;" clip-path="url(#cpMHw4NjR8MzYwfDA=)"/><path d="M107.12 316.45h17.28" style="stroke-width: 2.13; stroke: #FCBBA1; stroke-linecap: butt;" clip-path="url(#cpMHw4NjR8MzYwfDA=)"/><path d="M107.12 316.45h17.28" style="stroke-width: 2.13; stroke: #FCBBA1; stroke-dasharray: 11.38,11.38; stroke-linecap: butt;" clip-path="url(#cpMHw4NjR8MzYwfDA=)"/><path d="M107.12 316.45h17.28" style="stroke-width: 2.13; stroke: #FCBBA1; stroke-linecap: butt;" clip-path="url(#cpMHw4NjR8MzYwfDA=)"/><path d="M104.96 327.25h21.6v21.6h-21.6z" style="stroke-width: 10.67; stroke: #FFFFFF; fill: #F2F2F2;" clip-path="url(#cpMHw4NjR8MzYwfDA=)"/><path d="M107.12 338.05h17.28" style="stroke-width: 2.13; stroke: #FC9272; stroke-linecap: butt;" clip-path="url(#cpMHw4NjR8MzYwfDA=)"/><path d="M107.12 338.05h17.28" style="stroke-width: 2.13; stroke: #FC9272; stroke-dasharray: 11.38,11.38; stroke-linecap: butt;" clip-path="url(#cpMHw4NjR8MzYwfDA=)"/><path d="M107.12 338.05h17.28" style="stroke-width: 2.13; stroke: #FC9272; stroke-linecap: butt;" clip-path="url(#cpMHw4NjR8MzYwfDA=)"/><path d="M198.91 284.05h21.6v21.6h-21.6z" style="stroke-width: 10.67; stroke: #FFFFFF; fill: #F2F2F2;" clip-path="url(#cpMHw4NjR8MzYwfDA=)"/><path d="M201.07 294.85h17.28" style="stroke-width: 2.13; stroke: #FB6A4A; stroke-linecap: butt;" clip-path="url(#cpMHw4NjR8MzYwfDA=)"/><path d="M201.07 294.85h17.28" style="stroke-width: 2.13; stroke: #FB6A4A; stroke-dasharray: 11.38,11.38; stroke-linecap: butt;" clip-path="url(#cpMHw4NjR8MzYwfDA=)"/><path d="M201.07 294.85h17.28" style="stroke-width: 2.13; stroke: #FB6A4A; stroke-linecap: butt;" clip-path="url(#cpMHw4NjR8MzYwfDA=)"/><path d="M198.91 305.65h21.6v21.6h-21.6z" style="stroke-width: 10.67; stroke: #FFFFFF; fill: #F2F2F2;" clip-path="url(#cpMHw4NjR8MzYwfDA=)"/><path d="M201.07 316.45h17.28" style="stroke-width: 2.13; stroke: #DE2D26; stroke-linecap: butt;" clip-path="url(#cpMHw4NjR8MzYwfDA=)"/><path d="M201.07 316.45h17.28" style="stroke-width: 2.13; stroke: #DE2D26; stroke-dasharray: 11.38,11.38; stroke-linecap: butt;" clip-path="url(#cpMHw4NjR8MzYwfDA=)"/><path d="M201.07 316.45h17.28" style="stroke-width: 2.13; stroke: #DE2D26; stroke-linecap: butt;" clip-path="url(#cpMHw4NjR8MzYwfDA=)"/><path d="M198.91 327.25h21.6v21.6h-21.6z" style="stroke-width: 10.67; stroke: #FFFFFF; fill: #F2F2F2;" clip-path="url(#cpMHw4NjR8MzYwfDA=)"/><path d="M201.07 338.05h17.28" style="stroke-width: 2.13; stroke: #A50F15; stroke-linecap: butt;" clip-path="url(#cpMHw4NjR8MzYwfDA=)"/><path d="M201.07 338.05h17.28" style="stroke-width: 2.13; stroke: #A50F15; stroke-dasharray: 11.38,11.38; stroke-linecap: butt;" clip-path="url(#cpMHw4NjR8MzYwfDA=)"/><path d="M201.07 338.05h17.28" style="stroke-width: 2.13; stroke: #A50F15; stroke-linecap: butt;" clip-path="url(#cpMHw4NjR8MzYwfDA=)"/><path d="M311.35 284.05h21.6v21.6h-21.6z" style="stroke-width: 10.67; stroke: #FFFFFF; fill: #F2F2F2;" clip-path="url(#cpMHw4NjR8MzYwfDA=)"/><path d="M313.51 294.85h17.28" style="stroke-width: 2.13; stroke: #4169E1; stroke-linecap: butt;" clip-path="url(#cpMHw4NjR8MzYwfDA=)"/><path d="M313.51 294.85h17.28" style="stroke-width: 2.13; stroke: #4169E1; stroke-dasharray: 11.38,11.38; stroke-linecap: butt;" clip-path="url(#cpMHw4NjR8MzYwfDA=)"/><path d="M313.51 294.85h17.28" style="stroke-width: 2.13; stroke: #4169E1; stroke-linecap: butt;" clip-path="url(#cpMHw4NjR8MzYwfDA=)"/><path d="M311.35 305.65h21.6v21.6h-21.6z" style="stroke-width: 10.67; stroke: #FFFFFF; fill: #F2F2F2;" clip-path="url(#cpMHw4NjR8MzYwfDA=)"/><path d="M313.51 316.45h17.28" style="stroke-width: 2.13; stroke: #436EEE; stroke-linecap: butt;" clip-path="url(#cpMHw4NjR8MzYwfDA=)"/><path d="M313.51 316.45h17.28" style="stroke-width: 2.13; stroke: #436EEE; stroke-dasharray: 11.38,11.38; stroke-linecap: butt;" clip-path="url(#cpMHw4NjR8MzYwfDA=)"/><path d="M313.51 316.45h17.28" style="stroke-width: 2.13; stroke: #436EEE; stroke-linecap: butt;" clip-path="url(#cpMHw4NjR8MzYwfDA=)"/><path d="M311.35 327.25h21.6v21.6h-21.6z" style="stroke-width: 10.67; stroke: #FFFFFF; fill: #F2F2F2;" clip-path="url(#cpMHw4NjR8MzYwfDA=)"/><path d="M313.51 338.05h17.28" style="stroke-width: 2.13; stroke: #27408B; stroke-linecap: butt;" clip-path="url(#cpMHw4NjR8MzYwfDA=)"/><path d="M313.51 338.05h17.28" style="stroke-width: 2.13; stroke: #27408B; stroke-dasharray: 11.38,11.38; stroke-linecap: butt;" clip-path="url(#cpMHw4NjR8MzYwfDA=)"/><path d="M313.51 338.05h17.28" style="stroke-width: 2.13; stroke: #27408B; stroke-linecap: butt;" clip-path="url(#cpMHw4NjR8MzYwfDA=)"/><path d="M472.8 284.05h21.6v21.6h-21.6z" style="stroke-width: 10.67; stroke: #FFFFFF; fill: #F2F2F2;" clip-path="url(#cpMHw4NjR8MzYwfDA=)"/><path d="M474.96 294.85h17.28" style="stroke-width: 2.13; stroke: #EDF8E9; stroke-linecap: butt;" clip-path="url(#cpMHw4NjR8MzYwfDA=)"/><path d="M474.96 294.85h17.28" style="stroke-width: 2.13; stroke: #EDF8E9; stroke-dasharray: 11.38,11.38; stroke-linecap: butt;" clip-path="url(#cpMHw4NjR8MzYwfDA=)"/><path d="M474.96 294.85h17.28" style="stroke-width: 2.13; stroke: #EDF8E9; stroke-linecap: butt;" clip-path="url(#cpMHw4NjR8MzYwfDA=)"/><path d="M472.8 305.65h21.6v21.6h-21.6z" style="stroke-width: 10.67; stroke: #FFFFFF; fill: #F2F2F2;" clip-path="url(#cpMHw4NjR8MzYwfDA=)"/><path d="M474.96 316.45h17.28" style="stroke-width: 2.13; stroke: #BAE4B3; stroke-linecap: butt;" clip-path="url(#cpMHw4NjR8MzYwfDA=)"/><path d="M474.96 316.45h17.28" style="stroke-width: 2.13; stroke: #BAE4B3; stroke-dasharray: 11.38,11.38; stroke-linecap: butt;" clip-path="url(#cpMHw4NjR8MzYwfDA=)"/><path d="M474.96 316.45h17.28" style="stroke-width: 2.13; stroke: #BAE4B3; stroke-linecap: butt;" clip-path="url(#cpMHw4NjR8MzYwfDA=)"/><path d="M472.8 327.25h21.6v21.6h-21.6z" style="stroke-width: 10.67; stroke: #FFFFFF; fill: #F2F2F2;" clip-path="url(#cpMHw4NjR8MzYwfDA=)"/><path d="M474.96 338.05h17.28" style="stroke-width: 2.13; stroke: #74C476; stroke-linecap: butt;" clip-path="url(#cpMHw4NjR8MzYwfDA=)"/><path d="M474.96 338.05h17.28" style="stroke-width: 2.13; stroke: #74C476; stroke-dasharray: 11.38,11.38; stroke-linecap: butt;" clip-path="url(#cpMHw4NjR8MzYwfDA=)"/><path d="M474.96 338.05h17.28" style="stroke-width: 2.13; stroke: #74C476; stroke-linecap: butt;" clip-path="url(#cpMHw4NjR8MzYwfDA=)"/><path d="M620.75 284.05h21.6v21.6h-21.6z" style="stroke-width: 10.67; stroke: #FFFFFF; fill: #F2F2F2;" clip-path="url(#cpMHw4NjR8MzYwfDA=)"/><path d="M622.91 294.85h17.28" style="stroke-width: 2.13; stroke: #31A354; stroke-linecap: butt;" clip-path="url(#cpMHw4NjR8MzYwfDA=)"/><path d="M622.91 294.85h17.28" style="stroke-width: 2.13; stroke: #31A354; stroke-dasharray: 11.38,11.38; stroke-linecap: butt;" clip-path="url(#cpMHw4NjR8MzYwfDA=)"/><path d="M622.91 294.85h17.28" style="stroke-width: 2.13; stroke: #31A354; stroke-linecap: butt;" clip-path="url(#cpMHw4NjR8MzYwfDA=)"/><path d="M620.75 305.65h21.6v21.6h-21.6z" style="stroke-width: 10.67; stroke: #FFFFFF; fill: #F2F2F2;" clip-path="url(#cpMHw4NjR8MzYwfDA=)"/><path d="M622.91 316.45h17.28" style="stroke-width: 2.13; stroke: #006D2C; stroke-linecap: butt;" clip-path="url(#cpMHw4NjR8MzYwfDA=)"/><path d="M622.91 316.45h17.28" style="stroke-width: 2.13; stroke: #006D2C; stroke-dasharray: 11.38,11.38; stroke-linecap: butt;" clip-path="url(#cpMHw4NjR8MzYwfDA=)"/><path d="M622.91 316.45h17.28" style="stroke-width: 2.13; stroke: #006D2C; stroke-linecap: butt;" clip-path="url(#cpMHw4NjR8MzYwfDA=)"/><g clip-path="url(#cpMHw4NjR8MzYwfDA=)"><text x="128.72" y="298.07" style="font-size: 8.80px; font-family: Arial;" textLength="68.03" lengthAdjust="spacingAndGlyphs">STL_RANLUX48</text></g><g clip-path="url(#cpMHw4NjR8MzYwfDA=)"><text x="128.72" y="319.67" style="font-size: 8.80px; font-family: Arial;" textLength="68.03" lengthAdjust="spacingAndGlyphs">STL_RANLUX24</text></g><g clip-path="url(#cpMHw4NjR8MzYwfDA=)"><text x="128.72" y="341.27" style="font-size: 8.80px; font-family: Arial;" textLength="59.53" lengthAdjust="spacingAndGlyphs">STL_MT19937</text></g><g clip-path="url(#cpMHw4NjR8MzYwfDA=)"><text x="222.67" y="298.07" style="font-size: 8.80px; font-family: Arial;" textLength="63.52" lengthAdjust="spacingAndGlyphs">STL_KNUTH_B</text></g><g clip-path="url(#cpMHw4NjR8MzYwfDA=)"><text x="222.67" y="319.67" style="font-size: 8.80px; font-family: Arial;" textLength="86.52" lengthAdjust="spacingAndGlyphs">STL_MINSTD_RAND</text></g><g clip-path="url(#cpMHw4NjR8MzYwfDA=)"><text x="222.67" y="341.27" style="font-size: 8.80px; font-family: Arial;" textLength="74.55" lengthAdjust="spacingAndGlyphs">STL_MT19937_64</text></g><g clip-path="url(#cpMHw4NjR8MzYwfDA=)"><text x="335.11" y="298.07" style="font-size: 8.80px; font-family: Arial;" textLength="103.52" lengthAdjust="spacingAndGlyphs">CHAOS_MACHINE_NCG</text></g><g clip-path="url(#cpMHw4NjR8MzYwfDA=)"><text x="335.11" y="319.67" style="font-size: 8.80px; font-family: Arial;" textLength="135.53" lengthAdjust="spacingAndGlyphs">CHAOS_MACHINE_XORRING32</text></g><g clip-path="url(#cpMHw4NjR8MzYwfDA=)"><text x="335.11" y="341.27" style="font-size: 8.80px; font-family: Arial;" textLength="135.53" lengthAdjust="spacingAndGlyphs">CHAOS_MACHINE_XORRING64</text></g><g clip-path="url(#cpMHw4NjR8MzYwfDA=)"><text x="496.56" y="298.07" style="font-size: 8.80px; font-family: Arial;" textLength="88.53" lengthAdjust="spacingAndGlyphs">CHAOS_PRNG_KISS</text></g><g clip-path="url(#cpMHw4NjR8MzYwfDA=)"><text x="496.56" y="319.67" style="font-size: 8.80px; font-family: Arial;" textLength="115.53" lengthAdjust="spacingAndGlyphs">CHAOS_PRNG_XORSHF96</text></g><g clip-path="url(#cpMHw4NjR8MzYwfDA=)"><text x="496.56" y="341.27" style="font-size: 8.80px; font-family: Arial;" textLength="122.04" lengthAdjust="spacingAndGlyphs">CHAOS_PRNG_ABYSSINIAN</text></g><g clip-path="url(#cpMHw4NjR8MzYwfDA=)"><text x="644.51" y="298.07" style="font-size: 8.80px; font-family: Arial;" textLength="167.05" lengthAdjust="spacingAndGlyphs">CHAOS_PRNG_XOROSHIRO1024STAR</text></g><g clip-path="url(#cpMHw4NjR8MzYwfDA=)"><text x="644.51" y="319.67" style="font-size: 8.80px; font-family: Arial;" textLength="161.55" lengthAdjust="spacingAndGlyphs">CHAOS_PRNG_XOROSHIRO128PLUS</text></g><g clip-path="url(#cpMHw4NjR8MzYwfDA=)"><text x="53.68" y="14.79" style="font-size: 13.20px; font-family: Arial;" textLength="154.59" lengthAdjust="spacingAndGlyphs">MCs &amp; PRNGs benchmark</text></g></svg>