<svg xmlns="http://www.w3.org/2000/svg" width="600" height="480" xmlns:xlink="http://www.w3.org/1999/xlink">
  <desc>
    Produced by GNUPLOT 5.0 patchlevel 3
  </desc>
  <path fill="none" d="M0 0h600v480H0z"/>
  <defs>
    <path id="a" stroke="currentColor" stroke-width=".222" d="M-1 0h2M0-1v2"/>
  </defs>
  <g fill="none" stroke="currentColor" color="#000">
    <path stroke="#000" d="M53.9 444h9m512.1 0h-9"/>
    <text fill="#000" stroke="none" transform="translate(45.6 448.5)" font-family="Arial" font-size="12" text-anchor="end">
      <tspan>0</tspan>
    </text>
  </g>
  <g fill="none" stroke="currentColor" color="#000">
    <path stroke="#000" d="M53.9 360.5h9m512.1 0h-9"/>
    <text fill="#000" stroke="none" transform="translate(45.6 365)" font-family="Arial" font-size="12" text-anchor="end">
      <tspan>50</tspan>
    </text>
  </g>
  <g fill="none" stroke="currentColor" color="#000">
    <path stroke="#000" d="M53.9 277.1h9m512.1 0h-9"/>
    <text fill="#000" stroke="none" transform="translate(45.6 281.6)" font-family="Arial" font-size="12" text-anchor="end">
      <tspan>100</tspan>
    </text>
  </g>
  <g fill="none" stroke="currentColor" color="#000">
    <path stroke="#000" d="M53.9 193.6h9m512.1 0h-9"/>
    <text fill="#000" stroke="none" transform="translate(45.6 198.1)" font-family="Arial" font-size="12" text-anchor="end">
      <tspan>150</tspan>
    </text>
  </g>
  <g fill="none" stroke="currentColor" color="#000">
    <path stroke="#000" d="M53.9 110.2h9m512.1 0h-9"/>
    <text fill="#000" stroke="none" transform="translate(45.6 114.7)" font-family="Arial" font-size="12" text-anchor="end">
      <tspan>200</tspan>
    </text>
  </g>
  <g fill="none" stroke="currentColor" color="#000">
    <path stroke="#000" d="M53.9 26.7h9m512.1 0h-9"/>
    <text fill="#000" stroke="none" transform="translate(45.6 31.2)" font-family="Arial" font-size="12" text-anchor="end">
      <tspan>250</tspan>
    </text>
  </g>
  <g fill="none" stroke="currentColor" color="#000">
    <path stroke="#000" d="M53.9 444v-9m0-418.3v9"/>
    <text fill="#000" stroke="none" transform="translate(53.9 466.5)" font-family="Arial" font-size="12" text-anchor="middle">
      <tspan>0</tspan>
    </text>
  </g>
  <g fill="none" stroke="currentColor" color="#000">
    <path stroke="#000" d="M155.7 444v-9m0-418.3v9"/>
    <text fill="#000" stroke="none" transform="translate(155.7 466.5)" font-family="Arial" font-size="12" text-anchor="middle">
      <tspan>50</tspan>
    </text>
  </g>
  <g fill="none" stroke="currentColor" color="#000">
    <path stroke="#000" d="M257.5 444v-9m0-418.3v9"/>
    <text fill="#000" stroke="none" transform="translate(257.5 466.5)" font-family="Arial" font-size="12" text-anchor="middle">
      <tspan>100</tspan>
    </text>
  </g>
  <g fill="none" stroke="currentColor" color="#000">
    <path stroke="#000" d="M359.2 444v-9m0-418.3v9"/>
    <text fill="#000" stroke="none" transform="translate(359.2 466.5)" font-family="Arial" font-size="12" text-anchor="middle">
      <tspan>150</tspan>
    </text>
  </g>
  <g fill="none" stroke="currentColor" color="#000">
    <path stroke="#000" d="M461 444v-9m0-418.3v9"/>
    <text fill="#000" stroke="none" transform="translate(461 466.5)" font-family="Arial" font-size="12" text-anchor="middle">
      <tspan>200</tspan>
    </text>
  </g>
  <g fill="none" stroke="currentColor" color="#000">
    <path stroke="#000" d="M562.8 444v-9m0-418.3v9"/>
    <text fill="#000" stroke="none" transform="translate(562.8 466.5)" font-family="Arial" font-size="12" text-anchor="middle">
      <tspan>250</tspan>
    </text>
  </g>
  <path fill="none" stroke="#000" d="M53.9 16.7V444H575V16.7H53.9z" color="#000"/>
  <path fill="none" stroke="#F00" d="M53.9 444l5.3-4.3 5.2-4.3 5.3-4.3 5.3-4.4 5.2-4.3 5.3-4.3 5.2-4.3 5.3-4.3 5.3-4.3 5.2-4.4 5.3-4.3 5.3-4.3 5.2-4.3 5.3-4.3 5.3-4.3 5.2-4.4 5.3-4.3 5.2-4.3 5.3-4.3 5.3-4.3 5.2-4.3 5.3-4.4 5.3-4.3 5.2-4.3 5.3-4.3 5.3-4.3 5.2-4.3 5.3-4.4 5.2-4.3 5.3-4.3 5.3-4.3 5.2-4.3 5.3-4.3 5.3-4.3 5.2-4.4 5.3-4.3 5.3-4.3 5.2-4.3 5.3-4.3 5.2-4.3 5.3-4.4 5.3-4.3 5.2-4.3 5.3-4.3 5.3-4.3 5.2-4.3 5.3-4.4 5.3-4.3 5.2-4.3 5.3-4.3 5.2-4.3 5.3-4.3 5.3-4.4 5.2-4.3 5.3-4.3 5.3-4.3 5.2-4.3 5.3-4.3 5.3-4.4 5.2-4.3 5.3-4.3 5.2-4.3 5.3-4.3 5.3-4.3 5.2-4.4 5.3-4.3 5.3-4.3 5.2-4.3 5.3-4.3 5.3-4.3 5.2-4.3 5.3-4.4 5.2-4.3 5.3-4.3 5.3-4.3 5.2-4.3 5.3-4.3 5.3-4.4 5.2-4.3 5.3-4.3 5.3-4.3 5.2-4.3 5.3-4.3 5.2-4.4 5.3-4.3 5.3-4.3 5.2-4.3 5.3-4.3 5.3-4.3 5.2-4.4 5.3-4.3 5.3-4.3 5.2-4.3 5.3-4.3 5.2-4.3 5.3-4.4 5.3-4.3 5.2-4.3 5.3-4.3" color="#000"/>
  <path fill="none" stroke="#000" d="M53.9 16.7V444H575V16.7H53.9z" color="#000"/>
  <g fill="none" stroke="currentColor" color="#000">
    <path stroke="#000" d="M53.9 444h9m512.1 0h-9"/>
    <text fill="#000" stroke="none" transform="translate(45.6 448.5)" font-family="Arial" font-size="12" text-anchor="end">
      <tspan>0</tspan>
    </text>
  </g>
  <g fill="none" stroke="currentColor" color="#000">
    <path stroke="#000" d="M53.9 360.5h9m512.1 0h-9"/>
    <text fill="#000" stroke="none" transform="translate(45.6 365)" font-family="Arial" font-size="12" text-anchor="end">
      <tspan>50</tspan>
    </text>
  </g>
  <g fill="none" stroke="currentColor" color="#000">
    <path stroke="#000" d="M53.9 277.1h9m512.1 0h-9"/>
    <text fill="#000" stroke="none" transform="translate(45.6 281.6)" font-family="Arial" font-size="12" text-anchor="end">
      <tspan>100</tspan>
    </text>
  </g>
  <g fill="none" stroke="currentColor" color="#000">
    <path stroke="#000" d="M53.9 193.6h9m512.1 0h-9"/>
    <text fill="#000" stroke="none" transform="translate(45.6 198.1)" font-family="Arial" font-size="12" text-anchor="end">
      <tspan>150</tspan>
    </text>
  </g>
  <g fill="none" stroke="currentColor" color="#000">
    <path stroke="#000" d="M53.9 110.2h9m512.1 0h-9"/>
    <text fill="#000" stroke="none" transform="translate(45.6 114.7)" font-family="Arial" font-size="12" text-anchor="end">
      <tspan>200</tspan>
    </text>
  </g>
  <g fill="none" stroke="currentColor" color="#000">
    <path stroke="#000" d="M53.9 26.7h9m512.1 0h-9"/>
    <text fill="#000" stroke="none" transform="translate(45.6 31.2)" font-family="Arial" font-size="12" text-anchor="end">
      <tspan>250</tspan>
    </text>
  </g>
  <g fill="none" stroke="currentColor" color="#000">
    <path stroke="#000" d="M53.9 444v-9m0-418.3v9"/>
    <text fill="#000" stroke="none" transform="translate(53.9 466.5)" font-family="Arial" font-size="12" text-anchor="middle">
      <tspan>0</tspan>
    </text>
  </g>
  <g fill="none" stroke="currentColor" color="#000">
    <path stroke="#000" d="M155.7 444v-9m0-418.3v9"/>
    <text fill="#000" stroke="none" transform="translate(155.7 466.5)" font-family="Arial" font-size="12" text-anchor="middle">
      <tspan>50</tspan>
    </text>
  </g>
  <g fill="none" stroke="currentColor" color="#000">
    <path stroke="#000" d="M257.5 444v-9m0-418.3v9"/>
    <text fill="#000" stroke="none" transform="translate(257.5 466.5)" font-family="Arial" font-size="12" text-anchor="middle">
      <tspan>100</tspan>
    </text>
  </g>
  <g fill="none" stroke="currentColor" color="#000">
    <path stroke="#000" d="M359.2 444v-9m0-418.3v9"/>
    <text fill="#000" stroke="none" transform="translate(359.2 466.5)" font-family="Arial" font-size="12" text-anchor="middle">
      <tspan>150</tspan>
    </text>
  </g>
  <g fill="none" stroke="currentColor" color="#000">
    <path stroke="#000" d="M461 444v-9m0-418.3v9"/>
    <text fill="#000" stroke="none" transform="translate(461 466.5)" font-family="Arial" font-size="12" text-anchor="middle">
      <tspan>200</tspan>
    </text>
  </g>
  <g fill="none" stroke="currentColor" color="#000">
    <path stroke="#000" d="M562.8 444v-9m0-418.3v9"/>
    <text fill="#000" stroke="none" transform="translate(562.8 466.5)" font-family="Arial" font-size="12" text-anchor="middle">
      <tspan>250</tspan>
    </text>
  </g>
  <path fill="none" stroke="#000" d="M53.9 16.7V444H575V16.7H53.9z" color="#000"/>
  <g fill="none" stroke="currentColor" color="#9400D3">
    <use xlink:href="#a" transform="matrix(4.5 0 0 4.5 53.9 444)"/>
    <use xlink:href="#a" transform="matrix(4.5 0 0 4.5 55.9 444)"/>
    <use xlink:href="#a" transform="matrix(4.5 0 0 4.5 58 444)"/>
    <use xlink:href="#a" transform="matrix(4.5 0 0 4.5 60 442.3)"/>
    <use xlink:href="#a" transform="matrix(4.5 0 0 4.5 62 440.7)"/>
    <use xlink:href="#a" transform="matrix(4.5 0 0 4.5 64.1 437.3)"/>
    <use xlink:href="#a" transform="matrix(4.5 0 0 4.5 66.1 435.7)"/>
    <use xlink:href="#a" transform="matrix(4.5 0 0 4.5 68.1 434)"/>
    <use xlink:href="#a" transform="matrix(4.5 0 0 4.5 70.2 432.3)"/>
    <use xlink:href="#a" transform="matrix(4.5 0 0 4.5 72.2 429)"/>
    <use xlink:href="#a" transform="matrix(4.5 0 0 4.5 74.3 429)"/>
    <use xlink:href="#a" transform="matrix(4.5 0 0 4.5 76.3 422.3)"/>
    <use xlink:href="#a" transform="matrix(4.5 0 0 4.5 78.3 422.3)"/>
    <use xlink:href="#a" transform="matrix(4.5 0 0 4.5 80.4 420.6)"/>
    <use xlink:href="#a" transform="matrix(4.5 0 0 4.5 82.4 420.6)"/>
    <use xlink:href="#a" transform="matrix(4.5 0 0 4.5 84.4 419)"/>
    <use xlink:href="#a" transform="matrix(4.5 0 0 4.5 86.5 419)"/>
    <use xlink:href="#a" transform="matrix(4.5 0 0 4.5 88.5 415.6)"/>
    <use xlink:href="#a" transform="matrix(4.5 0 0 4.5 90.5 415.6)"/>
    <use xlink:href="#a" transform="matrix(4.5 0 0 4.5 92.6 414)"/>
    <use xlink:href="#a" transform="matrix(4.5 0 0 4.5 94.6 414)"/>
    <use xlink:href="#a" transform="matrix(4.5 0 0 4.5 96.6 414)"/>
    <use xlink:href="#a" transform="matrix(4.5 0 0 4.5 98.7 412.3)"/>
    <use xlink:href="#a" transform="matrix(4.5 0 0 4.5 100.7 410.6)"/>
    <use xlink:href="#a" transform="matrix(4.5 0 0 4.5 102.8 408.9)"/>
    <use xlink:href="#a" transform="matrix(4.5 0 0 4.5 104.8 407.3)"/>
    <use xlink:href="#a" transform="matrix(4.5 0 0 4.5 106.8 405.6)"/>
    <use xlink:href="#a" transform="matrix(4.5 0 0 4.5 108.9 405.6)"/>
    <use xlink:href="#a" transform="matrix(4.5 0 0 4.5 110.9 405.6)"/>
    <use xlink:href="#a" transform="matrix(4.5 0 0 4.5 112.9 403.9)"/>
    <use xlink:href="#a" transform="matrix(4.5 0 0 4.5 115 402.3)"/>
    <use xlink:href="#a" transform="matrix(4.5 0 0 4.5 117 400.6)"/>
    <use xlink:href="#a" transform="matrix(4.5 0 0 4.5 119 397.3)"/>
    <use xlink:href="#a" transform="matrix(4.5 0 0 4.5 121.1 397.3)"/>
    <use xlink:href="#a" transform="matrix(4.5 0 0 4.5 123.1 392.3)"/>
    <use xlink:href="#a" transform="matrix(4.5 0 0 4.5 125.1 392.3)"/>
    <use xlink:href="#a" transform="matrix(4.5 0 0 4.5 127.2 390.6)"/>
    <use xlink:href="#a" transform="matrix(4.5 0 0 4.5 129.2 390.6)"/>
    <use xlink:href="#a" transform="matrix(4.5 0 0 4.5 131.3 388.9)"/>
    <use xlink:href="#a" transform="matrix(4.5 0 0 4.5 133.3 388.9)"/>
    <use xlink:href="#a" transform="matrix(4.5 0 0 4.5 135.3 387.2)"/>
    <use xlink:href="#a" transform="matrix(4.5 0 0 4.5 137.4 385.6)"/>
    <use xlink:href="#a" transform="matrix(4.5 0 0 4.5 139.4 383.9)"/>
    <use xlink:href="#a" transform="matrix(4.5 0 0 4.5 141.4 380.6)"/>
    <use xlink:href="#a" transform="matrix(4.5 0 0 4.5 143.5 378.9)"/>
    <use xlink:href="#a" transform="matrix(4.5 0 0 4.5 145.5 378.9)"/>
    <use xlink:href="#a" transform="matrix(4.5 0 0 4.5 147.5 375.6)"/>
    <use xlink:href="#a" transform="matrix(4.5 0 0 4.5 149.6 375.6)"/>
    <use xlink:href="#a" transform="matrix(4.5 0 0 4.5 151.6 372.2)"/>
    <use xlink:href="#a" transform="matrix(4.5 0 0 4.5 153.6 370.6)"/>
    <use xlink:href="#a" transform="matrix(4.5 0 0 4.5 155.7 368.9)"/>
    <use xlink:href="#a" transform="matrix(4.5 0 0 4.5 157.7 368.9)"/>
    <use xlink:href="#a" transform="matrix(4.5 0 0 4.5 159.7 367.2)"/>
    <use xlink:href="#a" transform="matrix(4.5 0 0 4.5 161.8 367.2)"/>
    <use xlink:href="#a" transform="matrix(4.5 0 0 4.5 163.8 363.9)"/>
    <use xlink:href="#a" transform="matrix(4.5 0 0 4.5 165.9 363.9)"/>
    <use xlink:href="#a" transform="matrix(4.5 0 0 4.5 167.9 363.9)"/>
    <use xlink:href="#a" transform="matrix(4.5 0 0 4.5 169.9 362.2)"/>
    <use xlink:href="#a" transform="matrix(4.5 0 0 4.5 172 357.2)"/>
    <use xlink:href="#a" transform="matrix(4.5 0 0 4.5 174 355.5)"/>
    <use xlink:href="#a" transform="matrix(4.5 0 0 4.5 176 353.9)"/>
    <use xlink:href="#a" transform="matrix(4.5 0 0 4.5 178.1 350.5)"/>
    <use xlink:href="#a" transform="matrix(4.5 0 0 4.5 180.1 350.5)"/>
    <use xlink:href="#a" transform="matrix(4.5 0 0 4.5 182.1 347.2)"/>
    <use xlink:href="#a" transform="matrix(4.5 0 0 4.5 184.2 345.5)"/>
    <use xlink:href="#a" transform="matrix(4.5 0 0 4.5 186.2 340.5)"/>
    <use xlink:href="#a" transform="matrix(4.5 0 0 4.5 188.2 340.5)"/>
    <use xlink:href="#a" transform="matrix(4.5 0 0 4.5 190.3 338.8)"/>
    <use xlink:href="#a" transform="matrix(4.5 0 0 4.5 192.3 338.8)"/>
    <use xlink:href="#a" transform="matrix(4.5 0 0 4.5 194.4 338.8)"/>
    <use xlink:href="#a" transform="matrix(4.5 0 0 4.5 196.4 337.2)"/>
    <use xlink:href="#a" transform="matrix(4.5 0 0 4.5 198.4 335.5)"/>
    <use xlink:href="#a" transform="matrix(4.5 0 0 4.5 200.5 333.8)"/>
    <use xlink:href="#a" transform="matrix(4.5 0 0 4.5 202.5 333.8)"/>
    <use xlink:href="#a" transform="matrix(4.5 0 0 4.5 204.5 332.2)"/>
    <use xlink:href="#a" transform="matrix(4.5 0 0 4.5 206.6 332.2)"/>
    <use xlink:href="#a" transform="matrix(4.5 0 0 4.5 208.6 328.8)"/>
    <use xlink:href="#a" transform="matrix(4.5 0 0 4.5 210.6 328.8)"/>
    <use xlink:href="#a" transform="matrix(4.5 0 0 4.5 212.7 325.5)"/>
    <use xlink:href="#a" transform="matrix(4.5 0 0 4.5 214.7 325.5)"/>
    <use xlink:href="#a" transform="matrix(4.5 0 0 4.5 216.7 323.8)"/>
    <use xlink:href="#a" transform="matrix(4.5 0 0 4.5 218.8 320.5)"/>
    <use xlink:href="#a" transform="matrix(4.5 0 0 4.5 220.8 318.8)"/>
    <use xlink:href="#a" transform="matrix(4.5 0 0 4.5 222.9 317.1)"/>
    <use xlink:href="#a" transform="matrix(4.5 0 0 4.5 224.9 315.5)"/>
    <use xlink:href="#a" transform="matrix(4.5 0 0 4.5 226.9 315.5)"/>
    <use xlink:href="#a" transform="matrix(4.5 0 0 4.5 229 313.8)"/>
    <use xlink:href="#a" transform="matrix(4.5 0 0 4.5 231 312.1)"/>
    <use xlink:href="#a" transform="matrix(4.5 0 0 4.5 233 310.5)"/>
    <use xlink:href="#a" transform="matrix(4.5 0 0 4.5 235.1 307.1)"/>
    <use xlink:href="#a" transform="matrix(4.5 0 0 4.5 237.1 305.5)"/>
    <use xlink:href="#a" transform="matrix(4.5 0 0 4.5 239.1 305.5)"/>
    <use xlink:href="#a" transform="matrix(4.5 0 0 4.5 241.2 305.5)"/>
    <use xlink:href="#a" transform="matrix(4.5 0 0 4.5 243.2 300.5)"/>
    <use xlink:href="#a" transform="matrix(4.5 0 0 4.5 245.2 300.5)"/>
    <use xlink:href="#a" transform="matrix(4.5 0 0 4.5 247.3 300.5)"/>
    <use xlink:href="#a" transform="matrix(4.5 0 0 4.5 249.3 300.5)"/>
    <use xlink:href="#a" transform="matrix(4.5 0 0 4.5 251.3 298.8)"/>
    <use xlink:href="#a" transform="matrix(4.5 0 0 4.5 253.4 298.8)"/>
    <use xlink:href="#a" transform="matrix(4.5 0 0 4.5 255.4 297.1)"/>
    <use xlink:href="#a" transform="matrix(4.5 0 0 4.5 257.5 295.4)"/>
    <use xlink:href="#a" transform="matrix(4.5 0 0 4.5 259.5 292.1)"/>
    <use xlink:href="#a" transform="matrix(4.5 0 0 4.5 261.5 285.4)"/>
    <use xlink:href="#a" transform="matrix(4.5 0 0 4.5 263.6 283.8)"/>
    <use xlink:href="#a" transform="matrix(4.5 0 0 4.5 265.6 283.8)"/>
    <use xlink:href="#a" transform="matrix(4.5 0 0 4.5 267.6 278.8)"/>
    <use xlink:href="#a" transform="matrix(4.5 0 0 4.5 269.7 278.8)"/>
    <use xlink:href="#a" transform="matrix(4.5 0 0 4.5 271.7 277.1)"/>
    <use xlink:href="#a" transform="matrix(4.5 0 0 4.5 273.7 275.4)"/>
    <use xlink:href="#a" transform="matrix(4.5 0 0 4.5 275.8 275.4)"/>
    <use xlink:href="#a" transform="matrix(4.5 0 0 4.5 277.8 275.4)"/>
    <use xlink:href="#a" transform="matrix(4.5 0 0 4.5 279.8 273.7)"/>
    <use xlink:href="#a" transform="matrix(4.5 0 0 4.5 281.9 272.1)"/>
    <use xlink:href="#a" transform="matrix(4.5 0 0 4.5 283.9 265.4)"/>
    <use xlink:href="#a" transform="matrix(4.5 0 0 4.5 286 265.4)"/>
    <use xlink:href="#a" transform="matrix(4.5 0 0 4.5 288 263.7)"/>
    <use xlink:href="#a" transform="matrix(4.5 0 0 4.5 290 260.4)"/>
    <use xlink:href="#a" transform="matrix(4.5 0 0 4.5 292.1 253.7)"/>
    <use xlink:href="#a" transform="matrix(4.5 0 0 4.5 294.1 252)"/>
    <use xlink:href="#a" transform="matrix(4.5 0 0 4.5 296.1 250.4)"/>
    <use xlink:href="#a" transform="matrix(4.5 0 0 4.5 298.2 250.4)"/>
    <use xlink:href="#a" transform="matrix(4.5 0 0 4.5 300.2 248.7)"/>
    <use xlink:href="#a" transform="matrix(4.5 0 0 4.5 302.2 248.7)"/>
    <use xlink:href="#a" transform="matrix(4.5 0 0 4.5 304.3 245.4)"/>
    <use xlink:href="#a" transform="matrix(4.5 0 0 4.5 306.3 238.7)"/>
    <use xlink:href="#a" transform="matrix(4.5 0 0 4.5 308.3 238.7)"/>
    <use xlink:href="#a" transform="matrix(4.5 0 0 4.5 310.4 235.4)"/>
    <use xlink:href="#a" transform="matrix(4.5 0 0 4.5 312.4 233.7)"/>
    <use xlink:href="#a" transform="matrix(4.5 0 0 4.5 314.5 232)"/>
    <use xlink:href="#a" transform="matrix(4.5 0 0 4.5 316.5 228.7)"/>
    <use xlink:href="#a" transform="matrix(4.5 0 0 4.5 318.5 223.7)"/>
    <use xlink:href="#a" transform="matrix(4.5 0 0 4.5 320.6 217)"/>
    <use xlink:href="#a" transform="matrix(4.5 0 0 4.5 322.6 217)"/>
    <use xlink:href="#a" transform="matrix(4.5 0 0 4.5 324.6 210.3)"/>
    <use xlink:href="#a" transform="matrix(4.5 0 0 4.5 326.7 208.7)"/>
    <use xlink:href="#a" transform="matrix(4.5 0 0 4.5 328.7 207)"/>
    <use xlink:href="#a" transform="matrix(4.5 0 0 4.5 330.7 205.3)"/>
    <use xlink:href="#a" transform="matrix(4.5 0 0 4.5 332.8 205.3)"/>
    <use xlink:href="#a" transform="matrix(4.5 0 0 4.5 334.8 205.3)"/>
    <use xlink:href="#a" transform="matrix(4.5 0 0 4.5 336.8 205.3)"/>
    <use xlink:href="#a" transform="matrix(4.5 0 0 4.5 338.9 202)"/>
    <use xlink:href="#a" transform="matrix(4.5 0 0 4.5 340.9 202)"/>
    <use xlink:href="#a" transform="matrix(4.5 0 0 4.5 342.9 200.3)"/>
    <use xlink:href="#a" transform="matrix(4.5 0 0 4.5 345 198.6)"/>
    <use xlink:href="#a" transform="matrix(4.5 0 0 4.5 347 198.6)"/>
    <use xlink:href="#a" transform="matrix(4.5 0 0 4.5 349.1 197)"/>
    <use xlink:href="#a" transform="matrix(4.5 0 0 4.5 351.1 195.3)"/>
    <use xlink:href="#a" transform="matrix(4.5 0 0 4.5 353.1 192)"/>
    <use xlink:href="#a" transform="matrix(4.5 0 0 4.5 355.2 190.3)"/>
    <use xlink:href="#a" transform="matrix(4.5 0 0 4.5 357.2 185.3)"/>
    <use xlink:href="#a" transform="matrix(4.5 0 0 4.5 359.2 183.6)"/>
    <use xlink:href="#a" transform="matrix(4.5 0 0 4.5 361.3 181.9)"/>
    <use xlink:href="#a" transform="matrix(4.5 0 0 4.5 363.3 180.3)"/>
    <use xlink:href="#a" transform="matrix(4.5 0 0 4.5 365.3 178.6)"/>
    <use xlink:href="#a" transform="matrix(4.5 0 0 4.5 367.4 178.6)"/>
    <use xlink:href="#a" transform="matrix(4.5 0 0 4.5 369.4 178.6)"/>
    <use xlink:href="#a" transform="matrix(4.5 0 0 4.5 371.4 171.9)"/>
    <use xlink:href="#a" transform="matrix(4.5 0 0 4.5 373.5 171.9)"/>
    <use xlink:href="#a" transform="matrix(4.5 0 0 4.5 375.5 165.3)"/>
    <use xlink:href="#a" transform="matrix(4.5 0 0 4.5 377.6 163.6)"/>
    <use xlink:href="#a" transform="matrix(4.5 0 0 4.5 379.6 163.6)"/>
    <use xlink:href="#a" transform="matrix(4.5 0 0 4.5 381.6 163.6)"/>
    <use xlink:href="#a" transform="matrix(4.5 0 0 4.5 383.7 163.6)"/>
    <use xlink:href="#a" transform="matrix(4.5 0 0 4.5 385.7 160.2)"/>
    <use xlink:href="#a" transform="matrix(4.5 0 0 4.5 387.7 158.6)"/>
    <use xlink:href="#a" transform="matrix(4.5 0 0 4.5 389.8 158.6)"/>
    <use xlink:href="#a" transform="matrix(4.5 0 0 4.5 391.8 155.2)"/>
    <use xlink:href="#a" transform="matrix(4.5 0 0 4.5 393.8 151.9)"/>
    <use xlink:href="#a" transform="matrix(4.5 0 0 4.5 395.9 151.9)"/>
    <use xlink:href="#a" transform="matrix(4.5 0 0 4.5 397.9 151.9)"/>
    <use xlink:href="#a" transform="matrix(4.5 0 0 4.5 399.9 151.9)"/>
    <use xlink:href="#a" transform="matrix(4.5 0 0 4.5 402 150.2)"/>
    <use xlink:href="#a" transform="matrix(4.5 0 0 4.5 404 150.2)"/>
    <use xlink:href="#a" transform="matrix(4.5 0 0 4.5 406 150.2)"/>
    <use xlink:href="#a" transform="matrix(4.5 0 0 4.5 408.1 148.6)"/>
    <use xlink:href="#a" transform="matrix(4.5 0 0 4.5 410.1 148.6)"/>
    <use xlink:href="#a" transform="matrix(4.5 0 0 4.5 412.2 146.9)"/>
    <use xlink:href="#a" transform="matrix(4.5 0 0 4.5 414.2 146.9)"/>
    <use xlink:href="#a" transform="matrix(4.5 0 0 4.5 416.2 145.2)"/>
    <use xlink:href="#a" transform="matrix(4.5 0 0 4.5 418.3 140.2)"/>
    <use xlink:href="#a" transform="matrix(4.5 0 0 4.5 420.3 138.5)"/>
    <use xlink:href="#a" transform="matrix(4.5 0 0 4.5 422.3 138.5)"/>
    <use xlink:href="#a" transform="matrix(4.5 0 0 4.5 424.4 136.9)"/>
    <use xlink:href="#a" transform="matrix(4.5 0 0 4.5 426.4 136.9)"/>
    <use xlink:href="#a" transform="matrix(4.5 0 0 4.5 428.4 135.2)"/>
    <use xlink:href="#a" transform="matrix(4.5 0 0 4.5 430.5 135.2)"/>
    <use xlink:href="#a" transform="matrix(4.5 0 0 4.5 432.5 135.2)"/>
    <use xlink:href="#a" transform="matrix(4.5 0 0 4.5 434.5 133.5)"/>
    <use xlink:href="#a" transform="matrix(4.5 0 0 4.5 436.6 130.2)"/>
    <use xlink:href="#a" transform="matrix(4.5 0 0 4.5 438.6 128.5)"/>
    <use xlink:href="#a" transform="matrix(4.5 0 0 4.5 440.7 126.9)"/>
    <use xlink:href="#a" transform="matrix(4.5 0 0 4.5 442.7 126.9)"/>
    <use xlink:href="#a" transform="matrix(4.5 0 0 4.5 444.7 125.2)"/>
    <use xlink:href="#a" transform="matrix(4.5 0 0 4.5 446.8 125.2)"/>
    <use xlink:href="#a" transform="matrix(4.5 0 0 4.5 448.8 123.5)"/>
    <use xlink:href="#a" transform="matrix(4.5 0 0 4.5 450.8 121.9)"/>
    <use xlink:href="#a" transform="matrix(4.5 0 0 4.5 452.9 121.9)"/>
    <use xlink:href="#a" transform="matrix(4.5 0 0 4.5 454.9 116.8)"/>
    <use xlink:href="#a" transform="matrix(4.5 0 0 4.5 456.9 115.2)"/>
    <use xlink:href="#a" transform="matrix(4.5 0 0 4.5 459 110.2)"/>
    <use xlink:href="#a" transform="matrix(4.5 0 0 4.5 461 110.2)"/>
    <use xlink:href="#a" transform="matrix(4.5 0 0 4.5 463 108.5)"/>
    <use xlink:href="#a" transform="matrix(4.5 0 0 4.5 465.1 106.8)"/>
    <use xlink:href="#a" transform="matrix(4.5 0 0 4.5 467.1 101.8)"/>
    <use xlink:href="#a" transform="matrix(4.5 0 0 4.5 469.2 101.8)"/>
    <use xlink:href="#a" transform="matrix(4.5 0 0 4.5 471.2 100.2)"/>
    <use xlink:href="#a" transform="matrix(4.5 0 0 4.5 473.2 98.5)"/>
    <use xlink:href="#a" transform="matrix(4.5 0 0 4.5 475.3 96.8)"/>
    <use xlink:href="#a" transform="matrix(4.5 0 0 4.5 477.3 96.8)"/>
    <use xlink:href="#a" transform="matrix(4.5 0 0 4.5 479.3 96.8)"/>
    <use xlink:href="#a" transform="matrix(4.5 0 0 4.5 481.4 93.5)"/>
    <use xlink:href="#a" transform="matrix(4.5 0 0 4.5 483.4 93.5)"/>
    <use xlink:href="#a" transform="matrix(4.5 0 0 4.5 485.4 91.8)"/>
    <use xlink:href="#a" transform="matrix(4.5 0 0 4.5 487.5 90.1)"/>
    <use xlink:href="#a" transform="matrix(4.5 0 0 4.5 489.5 88.5)"/>
    <use xlink:href="#a" transform="matrix(4.5 0 0 4.5 491.5 88.5)"/>
    <use xlink:href="#a" transform="matrix(4.5 0 0 4.5 493.6 85.1)"/>
    <use xlink:href="#a" transform="matrix(4.5 0 0 4.5 495.6 85.1)"/>
    <use xlink:href="#a" transform="matrix(4.5 0 0 4.5 497.6 85.1)"/>
    <use xlink:href="#a" transform="matrix(4.5 0 0 4.5 499.7 81.8)"/>
    <use xlink:href="#a" transform="matrix(4.5 0 0 4.5 501.7 80.1)"/>
    <use xlink:href="#a" transform="matrix(4.5 0 0 4.5 503.8 80.1)"/>
    <use xlink:href="#a" transform="matrix(4.5 0 0 4.5 505.8 76.8)"/>
    <use xlink:href="#a" transform="matrix(4.5 0 0 4.5 507.8 75.1)"/>
    <use xlink:href="#a" transform="matrix(4.5 0 0 4.5 509.9 75.1)"/>
    <use xlink:href="#a" transform="matrix(4.5 0 0 4.5 511.9 71.8)"/>
    <use xlink:href="#a" transform="matrix(4.5 0 0 4.5 513.9 70.1)"/>
    <use xlink:href="#a" transform="matrix(4.5 0 0 4.5 516 66.8)"/>
    <use xlink:href="#a" transform="matrix(4.5 0 0 4.5 518 65.1)"/>
    <use xlink:href="#a" transform="matrix(4.5 0 0 4.5 520 65.1)"/>
    <use xlink:href="#a" transform="matrix(4.5 0 0 4.5 522.1 60.1)"/>
    <use xlink:href="#a" transform="matrix(4.5 0 0 4.5 524.1 58.4)"/>
    <use xlink:href="#a" transform="matrix(4.5 0 0 4.5 526.1 58.4)"/>
    <use xlink:href="#a" transform="matrix(4.5 0 0 4.5 528.2 56.8)"/>
    <use xlink:href="#a" transform="matrix(4.5 0 0 4.5 530.2 55.1)"/>
    <use xlink:href="#a" transform="matrix(4.5 0 0 4.5 532.3 55.1)"/>
    <use xlink:href="#a" transform="matrix(4.5 0 0 4.5 534.3 53.4)"/>
    <use xlink:href="#a" transform="matrix(4.5 0 0 4.5 536.3 53.4)"/>
    <use xlink:href="#a" transform="matrix(4.5 0 0 4.5 538.4 51.8)"/>
    <use xlink:href="#a" transform="matrix(4.5 0 0 4.5 540.4 51.8)"/>
    <use xlink:href="#a" transform="matrix(4.5 0 0 4.5 542.4 50.1)"/>
    <use xlink:href="#a" transform="matrix(4.5 0 0 4.5 544.5 48.4)"/>
    <use xlink:href="#a" transform="matrix(4.5 0 0 4.5 546.5 46.7)"/>
    <use xlink:href="#a" transform="matrix(4.5 0 0 4.5 548.5 43.4)"/>
    <use xlink:href="#a" transform="matrix(4.5 0 0 4.5 550.6 43.4)"/>
    <use xlink:href="#a" transform="matrix(4.5 0 0 4.5 552.6 43.4)"/>
    <use xlink:href="#a" transform="matrix(4.5 0 0 4.5 554.6 41.7)"/>
    <use xlink:href="#a" transform="matrix(4.5 0 0 4.5 556.7 40.1)"/>
    <use xlink:href="#a" transform="matrix(4.5 0 0 4.5 558.7 38.4)"/>
    <use xlink:href="#a" transform="matrix(4.5 0 0 4.5 560.8 38.4)"/>
    <use xlink:href="#a" transform="matrix(4.5 0 0 4.5 562.8 30.1)"/>
    <use xlink:href="#a" transform="matrix(4.5 0 0 4.5 564.8 28.4)"/>
    <use xlink:href="#a" transform="matrix(4.5 0 0 4.5 566.9 26.7)"/>
    <use xlink:href="#a" transform="matrix(4.5 0 0 4.5 568.9 26.7)"/>
    <use xlink:href="#a" transform="matrix(4.5 0 0 4.5 570.9 18.4)"/>
    <use xlink:href="#a" transform="matrix(4.5 0 0 4.5 573 18.4)"/>
  </g>
  <path fill="none" stroke="#000" d="M53.9 16.7V444H575V16.7H53.9z" color="#000"/>
</svg>
