<svg xmlns="http://www.w3.org/2000/svg" width="380" height="380" version="1">
  <path fill="none" stroke="#000" stroke-width="3.96875262" d="M8.596369 8.546372h362.80725v362.90726H8.596369z"/>
  <path d="M339.4785048 72.0189355a10 10 0 1 1-20 0 10 10 0 1 1 20 0zM154.049935 225.285783a10 10 0 1 1-20 0 10 10 0 1 1 20 0zm-52.85714-137.142856a10 10 0 1 1-20 0 10 10 0 1 1 20 0zm111.428572 78.571429a10 10 0 1 1-20 0 10 10 0 1 1 20 0zm70 118.571435a10 10 0 1 1-20 0 10 10 0 1 1 20 0zm-195.714282 22.85714a10 10 0 1 1-20 0 10 10 0 1 1 20 0z"/>
  <path fill="#01FF70" stroke="#000" stroke-width="3.75184" d="M8.43796738 8.4379546a363.12408173 363.12408173 0 0 1 363.12407235 363.1240817H8.437958z" opacity=".65"/>
</svg>
